<mxfile host="app.diagrams.net" agent="Mozilla/5.0 (Windows NT 10.0; Win64; x64) AppleWebKit/537.36 (KHTML, like Gecko) Chrome/136.0.0.0 Safari/537.36" version="27.0.9">
  <diagram name="PÃ¡gina-1" id="vKwuTzkbTbUG5ZMFF_RP">
    <mxGraphModel grid="1" page="1" gridSize="10" guides="1" tooltips="1" connect="1" arrows="1" fold="1" pageScale="1" pageWidth="1169" pageHeight="827" math="0" shadow="0">
      <root>
        <mxCell id="0" />
        <mxCell id="1" parent="0" />
        <mxCell id="G9i1lhWfQHHaJjbso06v-3" value="UI LAYER" style="shape=folder;fontStyle=1;tabWidth=110;tabHeight=30;tabPosition=left;html=1;boundedLbl=1;labelInHeader=1;container=1;collapsible=0;recursiveResize=0;whiteSpace=wrap;" vertex="1" parent="1">
          <mxGeometry x="283" y="40" width="603" height="170" as="geometry" />
        </mxCell>
        <mxCell id="G9i1lhWfQHHaJjbso06v-4" value="Mobile App" style="html=1;whiteSpace=wrap;" vertex="1" parent="G9i1lhWfQHHaJjbso06v-3">
          <mxGeometry width="110" height="30" relative="1" as="geometry">
            <mxPoint x="73" y="90" as="offset" />
          </mxGeometry>
        </mxCell>
        <mxCell id="G9i1lhWfQHHaJjbso06v-5" value="Web App" style="html=1;whiteSpace=wrap;" vertex="1" parent="G9i1lhWfQHHaJjbso06v-3">
          <mxGeometry x="243" y="90" width="110" height="30" as="geometry" />
        </mxCell>
        <mxCell id="G9i1lhWfQHHaJjbso06v-6" value="Admin Panel" style="html=1;whiteSpace=wrap;" vertex="1" parent="G9i1lhWfQHHaJjbso06v-3">
          <mxGeometry x="413" y="90" width="110" height="30" as="geometry" />
        </mxCell>
        <mxCell id="G9i1lhWfQHHaJjbso06v-7" value="BL LAYER" style="shape=folder;fontStyle=1;tabWidth=110;tabHeight=30;tabPosition=left;html=1;boundedLbl=1;labelInHeader=1;container=1;collapsible=0;recursiveResize=0;whiteSpace=wrap;" vertex="1" parent="1">
          <mxGeometry x="105" y="470" width="960" height="170" as="geometry" />
        </mxCell>
        <mxCell id="G9i1lhWfQHHaJjbso06v-8" value="User Service" style="html=1;whiteSpace=wrap;" vertex="1" parent="G9i1lhWfQHHaJjbso06v-7">
          <mxGeometry width="110" height="30" relative="1" as="geometry">
            <mxPoint x="35" y="90" as="offset" />
          </mxGeometry>
        </mxCell>
        <mxCell id="G9i1lhWfQHHaJjbso06v-9" value="Payment Service" style="html=1;whiteSpace=wrap;" vertex="1" parent="G9i1lhWfQHHaJjbso06v-7">
          <mxGeometry x="185" y="90" width="110" height="30" as="geometry" />
        </mxCell>
        <mxCell id="G9i1lhWfQHHaJjbso06v-10" value="Order Service" style="html=1;whiteSpace=wrap;" vertex="1" parent="G9i1lhWfQHHaJjbso06v-7">
          <mxGeometry x="338" y="90" width="110" height="30" as="geometry" />
        </mxCell>
        <mxCell id="G9i1lhWfQHHaJjbso06v-11" value="Menu Service" style="html=1;whiteSpace=wrap;" vertex="1" parent="G9i1lhWfQHHaJjbso06v-7">
          <mxGeometry x="495" y="90" width="110" height="30" as="geometry" />
        </mxCell>
        <mxCell id="G9i1lhWfQHHaJjbso06v-12" value="Delivery Service" style="html=1;whiteSpace=wrap;" vertex="1" parent="G9i1lhWfQHHaJjbso06v-7">
          <mxGeometry x="655" y="90" width="110" height="30" as="geometry" />
        </mxCell>
        <mxCell id="G9i1lhWfQHHaJjbso06v-13" style="edgeStyle=orthogonalEdgeStyle;rounded=0;orthogonalLoop=1;jettySize=auto;html=1;exitX=0.5;exitY=1;exitDx=0;exitDy=0;" edge="1" parent="G9i1lhWfQHHaJjbso06v-7" source="G9i1lhWfQHHaJjbso06v-11" target="G9i1lhWfQHHaJjbso06v-11">
          <mxGeometry relative="1" as="geometry" />
        </mxCell>
        <mxCell id="G9i1lhWfQHHaJjbso06v-23" value="Restaurant Service" style="rounded=0;whiteSpace=wrap;html=1;" vertex="1" parent="G9i1lhWfQHHaJjbso06v-7">
          <mxGeometry x="820" y="90" width="100" height="30" as="geometry" />
        </mxCell>
        <mxCell id="G9i1lhWfQHHaJjbso06v-14" value="APIGATEWAY" style="shape=folder;fontStyle=1;tabWidth=110;tabHeight=30;tabPosition=left;html=1;boundedLbl=1;labelInHeader=1;container=1;collapsible=0;recursiveResize=0;whiteSpace=wrap;" vertex="1" parent="1">
          <mxGeometry x="283" y="244" width="603" height="170" as="geometry" />
        </mxCell>
        <mxCell id="G9i1lhWfQHHaJjbso06v-16" value="API GATEWAY" style="html=1;whiteSpace=wrap;" vertex="1" parent="G9i1lhWfQHHaJjbso06v-14">
          <mxGeometry x="243" y="90" width="110" height="30" as="geometry" />
        </mxCell>
        <mxCell id="G9i1lhWfQHHaJjbso06v-18" style="edgeStyle=orthogonalEdgeStyle;rounded=0;orthogonalLoop=1;jettySize=auto;html=1;exitX=0.5;exitY=1;exitDx=0;exitDy=0;entryX=0;entryY=0.25;entryDx=0;entryDy=0;" edge="1" parent="1" source="G9i1lhWfQHHaJjbso06v-4" target="G9i1lhWfQHHaJjbso06v-16">
          <mxGeometry relative="1" as="geometry" />
        </mxCell>
        <mxCell id="G9i1lhWfQHHaJjbso06v-19" style="edgeStyle=orthogonalEdgeStyle;rounded=0;orthogonalLoop=1;jettySize=auto;html=1;" edge="1" parent="1" source="G9i1lhWfQHHaJjbso06v-5" target="G9i1lhWfQHHaJjbso06v-16">
          <mxGeometry relative="1" as="geometry" />
        </mxCell>
        <mxCell id="G9i1lhWfQHHaJjbso06v-20" style="edgeStyle=orthogonalEdgeStyle;rounded=0;orthogonalLoop=1;jettySize=auto;html=1;exitX=0.5;exitY=1;exitDx=0;exitDy=0;entryX=1;entryY=0.25;entryDx=0;entryDy=0;" edge="1" parent="1" source="G9i1lhWfQHHaJjbso06v-6" target="G9i1lhWfQHHaJjbso06v-16">
          <mxGeometry relative="1" as="geometry" />
        </mxCell>
        <mxCell id="G9i1lhWfQHHaJjbso06v-31" style="edgeStyle=orthogonalEdgeStyle;rounded=0;orthogonalLoop=1;jettySize=auto;html=1;exitX=0.25;exitY=1;exitDx=0;exitDy=0;" edge="1" parent="1" source="G9i1lhWfQHHaJjbso06v-16" target="G9i1lhWfQHHaJjbso06v-10">
          <mxGeometry relative="1" as="geometry" />
        </mxCell>
        <mxCell id="G9i1lhWfQHHaJjbso06v-32" style="edgeStyle=orthogonalEdgeStyle;rounded=0;orthogonalLoop=1;jettySize=auto;html=1;exitX=0.75;exitY=1;exitDx=0;exitDy=0;entryX=0.5;entryY=0;entryDx=0;entryDy=0;" edge="1" parent="1" source="G9i1lhWfQHHaJjbso06v-16" target="G9i1lhWfQHHaJjbso06v-11">
          <mxGeometry relative="1" as="geometry" />
        </mxCell>
        <mxCell id="G9i1lhWfQHHaJjbso06v-33" style="edgeStyle=orthogonalEdgeStyle;rounded=0;orthogonalLoop=1;jettySize=auto;html=1;exitX=1;exitY=1;exitDx=0;exitDy=0;" edge="1" parent="1" source="G9i1lhWfQHHaJjbso06v-16" target="G9i1lhWfQHHaJjbso06v-12">
          <mxGeometry relative="1" as="geometry">
            <Array as="points">
              <mxPoint x="720" y="364" />
              <mxPoint x="720" y="462" />
              <mxPoint x="815" y="462" />
            </Array>
          </mxGeometry>
        </mxCell>
        <mxCell id="G9i1lhWfQHHaJjbso06v-34" style="edgeStyle=orthogonalEdgeStyle;rounded=0;orthogonalLoop=1;jettySize=auto;html=1;exitX=0;exitY=1;exitDx=0;exitDy=0;" edge="1" parent="1" source="G9i1lhWfQHHaJjbso06v-16" target="G9i1lhWfQHHaJjbso06v-9">
          <mxGeometry relative="1" as="geometry">
            <Array as="points">
              <mxPoint x="440" y="364" />
              <mxPoint x="440" y="462" />
              <mxPoint x="345" y="462" />
            </Array>
          </mxGeometry>
        </mxCell>
        <mxCell id="G9i1lhWfQHHaJjbso06v-35" style="edgeStyle=orthogonalEdgeStyle;rounded=0;orthogonalLoop=1;jettySize=auto;html=1;exitX=1;exitY=0.75;exitDx=0;exitDy=0;entryX=0.5;entryY=0;entryDx=0;entryDy=0;" edge="1" parent="1" source="G9i1lhWfQHHaJjbso06v-16" target="G9i1lhWfQHHaJjbso06v-23">
          <mxGeometry relative="1" as="geometry" />
        </mxCell>
        <mxCell id="G9i1lhWfQHHaJjbso06v-36" style="edgeStyle=orthogonalEdgeStyle;rounded=0;orthogonalLoop=1;jettySize=auto;html=1;exitX=0;exitY=0.75;exitDx=0;exitDy=0;" edge="1" parent="1" source="G9i1lhWfQHHaJjbso06v-16" target="G9i1lhWfQHHaJjbso06v-8">
          <mxGeometry relative="1" as="geometry" />
        </mxCell>
        <mxCell id="G9i1lhWfQHHaJjbso06v-37" value="SAL LAYER" style="shape=folder;fontStyle=1;tabWidth=110;tabHeight=30;tabPosition=left;html=1;boundedLbl=1;labelInHeader=1;container=1;collapsible=0;recursiveResize=0;whiteSpace=wrap;" vertex="1" parent="1">
          <mxGeometry x="105" y="680" width="960" height="170" as="geometry" />
        </mxCell>
        <mxCell id="G9i1lhWfQHHaJjbso06v-38" value="User Repository" style="html=1;whiteSpace=wrap;" vertex="1" parent="G9i1lhWfQHHaJjbso06v-37">
          <mxGeometry width="110" height="30" relative="1" as="geometry">
            <mxPoint x="15" y="90" as="offset" />
          </mxGeometry>
        </mxCell>
        <mxCell id="G9i1lhWfQHHaJjbso06v-39" value="Payment Repository" style="html=1;whiteSpace=wrap;" vertex="1" parent="G9i1lhWfQHHaJjbso06v-37">
          <mxGeometry x="135" y="90" width="110" height="30" as="geometry" />
        </mxCell>
        <mxCell id="G9i1lhWfQHHaJjbso06v-40" value="Order Repository" style="html=1;whiteSpace=wrap;" vertex="1" parent="G9i1lhWfQHHaJjbso06v-37">
          <mxGeometry x="375" y="90" width="110" height="30" as="geometry" />
        </mxCell>
        <mxCell id="G9i1lhWfQHHaJjbso06v-41" value="Menu Repository" style="html=1;whiteSpace=wrap;" vertex="1" parent="G9i1lhWfQHHaJjbso06v-37">
          <mxGeometry x="495" y="90" width="110" height="30" as="geometry" />
        </mxCell>
        <mxCell id="G9i1lhWfQHHaJjbso06v-42" value="External APIs Maps, SMS, payments Gateway" style="html=1;whiteSpace=wrap;" vertex="1" parent="G9i1lhWfQHHaJjbso06v-37">
          <mxGeometry x="655" y="75" width="110" height="60" as="geometry" />
        </mxCell>
        <mxCell id="G9i1lhWfQHHaJjbso06v-43" style="edgeStyle=orthogonalEdgeStyle;rounded=0;orthogonalLoop=1;jettySize=auto;html=1;exitX=0.5;exitY=1;exitDx=0;exitDy=0;" edge="1" parent="G9i1lhWfQHHaJjbso06v-37" source="G9i1lhWfQHHaJjbso06v-41" target="G9i1lhWfQHHaJjbso06v-41">
          <mxGeometry relative="1" as="geometry" />
        </mxCell>
        <mxCell id="G9i1lhWfQHHaJjbso06v-44" value="Restaurant Repository" style="rounded=0;whiteSpace=wrap;html=1;" vertex="1" parent="G9i1lhWfQHHaJjbso06v-37">
          <mxGeometry x="820" y="90" width="100" height="30" as="geometry" />
        </mxCell>
        <mxCell id="G9i1lhWfQHHaJjbso06v-45" value="Cache Layer Redis" style="html=1;whiteSpace=wrap;" vertex="1" parent="G9i1lhWfQHHaJjbso06v-37">
          <mxGeometry x="255" y="90" width="110" height="30" as="geometry" />
        </mxCell>
        <mxCell id="G9i1lhWfQHHaJjbso06v-46" style="edgeStyle=orthogonalEdgeStyle;rounded=0;orthogonalLoop=1;jettySize=auto;html=1;exitX=0.25;exitY=1;exitDx=0;exitDy=0;" edge="1" parent="1" source="G9i1lhWfQHHaJjbso06v-8" target="G9i1lhWfQHHaJjbso06v-38">
          <mxGeometry relative="1" as="geometry">
            <Array as="points">
              <mxPoint x="168" y="680" />
              <mxPoint x="168" y="680" />
            </Array>
          </mxGeometry>
        </mxCell>
        <mxCell id="G9i1lhWfQHHaJjbso06v-47" style="edgeStyle=orthogonalEdgeStyle;rounded=0;orthogonalLoop=1;jettySize=auto;html=1;exitX=0.75;exitY=1;exitDx=0;exitDy=0;entryX=0.25;entryY=0;entryDx=0;entryDy=0;" edge="1" parent="1" source="G9i1lhWfQHHaJjbso06v-8" target="G9i1lhWfQHHaJjbso06v-45">
          <mxGeometry relative="1" as="geometry">
            <Array as="points">
              <mxPoint x="223" y="650" />
              <mxPoint x="387" y="650" />
            </Array>
          </mxGeometry>
        </mxCell>
        <mxCell id="G9i1lhWfQHHaJjbso06v-48" style="edgeStyle=orthogonalEdgeStyle;rounded=0;orthogonalLoop=1;jettySize=auto;html=1;exitX=0.25;exitY=1;exitDx=0;exitDy=0;" edge="1" parent="1" source="G9i1lhWfQHHaJjbso06v-9" target="G9i1lhWfQHHaJjbso06v-39">
          <mxGeometry relative="1" as="geometry">
            <Array as="points">
              <mxPoint x="295" y="590" />
            </Array>
          </mxGeometry>
        </mxCell>
        <mxCell id="G9i1lhWfQHHaJjbso06v-49" style="edgeStyle=orthogonalEdgeStyle;rounded=0;orthogonalLoop=1;jettySize=auto;html=1;exitX=0.75;exitY=1;exitDx=0;exitDy=0;entryX=0.25;entryY=0;entryDx=0;entryDy=0;" edge="1" parent="1" source="G9i1lhWfQHHaJjbso06v-9" target="G9i1lhWfQHHaJjbso06v-42">
          <mxGeometry relative="1" as="geometry">
            <Array as="points">
              <mxPoint x="373" y="620" />
              <mxPoint x="787" y="620" />
            </Array>
          </mxGeometry>
        </mxCell>
        <mxCell id="G9i1lhWfQHHaJjbso06v-50" style="edgeStyle=orthogonalEdgeStyle;rounded=0;orthogonalLoop=1;jettySize=auto;html=1;exitX=0;exitY=1;exitDx=0;exitDy=0;entryX=0.75;entryY=0;entryDx=0;entryDy=0;" edge="1" parent="1" source="G9i1lhWfQHHaJjbso06v-10" target="G9i1lhWfQHHaJjbso06v-45">
          <mxGeometry relative="1" as="geometry" />
        </mxCell>
        <mxCell id="G9i1lhWfQHHaJjbso06v-51" style="edgeStyle=orthogonalEdgeStyle;rounded=0;orthogonalLoop=1;jettySize=auto;html=1;exitX=0.75;exitY=1;exitDx=0;exitDy=0;entryX=0.407;entryY=0.062;entryDx=0;entryDy=0;entryPerimeter=0;" edge="1" parent="1" source="G9i1lhWfQHHaJjbso06v-10" target="G9i1lhWfQHHaJjbso06v-40">
          <mxGeometry relative="1" as="geometry" />
        </mxCell>
        <mxCell id="G9i1lhWfQHHaJjbso06v-52" style="edgeStyle=orthogonalEdgeStyle;rounded=0;orthogonalLoop=1;jettySize=auto;html=1;exitX=0.25;exitY=1;exitDx=0;exitDy=0;entryX=1;entryY=0;entryDx=0;entryDy=0;" edge="1" parent="1" source="G9i1lhWfQHHaJjbso06v-11" target="G9i1lhWfQHHaJjbso06v-45">
          <mxGeometry relative="1" as="geometry" />
        </mxCell>
        <mxCell id="G9i1lhWfQHHaJjbso06v-53" style="edgeStyle=orthogonalEdgeStyle;rounded=0;orthogonalLoop=1;jettySize=auto;html=1;exitX=0.75;exitY=1;exitDx=0;exitDy=0;entryX=0.75;entryY=0;entryDx=0;entryDy=0;" edge="1" parent="1" source="G9i1lhWfQHHaJjbso06v-11" target="G9i1lhWfQHHaJjbso06v-41">
          <mxGeometry relative="1" as="geometry" />
        </mxCell>
        <mxCell id="G9i1lhWfQHHaJjbso06v-54" style="edgeStyle=orthogonalEdgeStyle;rounded=0;orthogonalLoop=1;jettySize=auto;html=1;exitX=0.5;exitY=1;exitDx=0;exitDy=0;" edge="1" parent="1" source="G9i1lhWfQHHaJjbso06v-12" target="G9i1lhWfQHHaJjbso06v-42">
          <mxGeometry relative="1" as="geometry" />
        </mxCell>
        <mxCell id="G9i1lhWfQHHaJjbso06v-55" style="edgeStyle=orthogonalEdgeStyle;rounded=0;orthogonalLoop=1;jettySize=auto;html=1;exitX=0.75;exitY=1;exitDx=0;exitDy=0;entryX=0.25;entryY=0;entryDx=0;entryDy=0;" edge="1" parent="1" source="G9i1lhWfQHHaJjbso06v-12" target="G9i1lhWfQHHaJjbso06v-44">
          <mxGeometry relative="1" as="geometry" />
        </mxCell>
        <mxCell id="G9i1lhWfQHHaJjbso06v-56" style="edgeStyle=orthogonalEdgeStyle;rounded=0;orthogonalLoop=1;jettySize=auto;html=1;exitX=0.75;exitY=1;exitDx=0;exitDy=0;entryX=0.75;entryY=0;entryDx=0;entryDy=0;" edge="1" parent="1" source="G9i1lhWfQHHaJjbso06v-23" target="G9i1lhWfQHHaJjbso06v-44">
          <mxGeometry relative="1" as="geometry" />
        </mxCell>
        <mxCell id="G9i1lhWfQHHaJjbso06v-57" value="DB LAYER" style="shape=folder;fontStyle=1;tabWidth=110;tabHeight=30;tabPosition=left;html=1;boundedLbl=1;labelInHeader=1;container=1;collapsible=0;recursiveResize=0;whiteSpace=wrap;" vertex="1" parent="1">
          <mxGeometry x="105" y="900" width="960" height="170" as="geometry" />
        </mxCell>
        <mxCell id="G9i1lhWfQHHaJjbso06v-67" value="USER DB" style="strokeWidth=2;html=1;shape=mxgraph.flowchart.database;whiteSpace=wrap;" vertex="1" parent="G9i1lhWfQHHaJjbso06v-57">
          <mxGeometry x="22.5" y="60" width="115" height="90" as="geometry" />
        </mxCell>
        <mxCell id="G9i1lhWfQHHaJjbso06v-68" value="REDIS CACHE" style="strokeWidth=2;html=1;shape=mxgraph.flowchart.database;whiteSpace=wrap;" vertex="1" parent="G9i1lhWfQHHaJjbso06v-57">
          <mxGeometry x="182.5" y="60" width="115" height="90" as="geometry" />
        </mxCell>
        <mxCell id="G9i1lhWfQHHaJjbso06v-69" value="ORDERS DB" style="strokeWidth=2;html=1;shape=mxgraph.flowchart.database;whiteSpace=wrap;" vertex="1" parent="G9i1lhWfQHHaJjbso06v-57">
          <mxGeometry x="342.5" y="60" width="115" height="90" as="geometry" />
        </mxCell>
        <mxCell id="G9i1lhWfQHHaJjbso06v-70" value="MENU DB" style="strokeWidth=2;html=1;shape=mxgraph.flowchart.database;whiteSpace=wrap;" vertex="1" parent="G9i1lhWfQHHaJjbso06v-57">
          <mxGeometry x="502.5" y="60" width="115" height="90" as="geometry" />
        </mxCell>
        <mxCell id="G9i1lhWfQHHaJjbso06v-71" value="FILE STORAGE" style="strokeWidth=2;html=1;shape=mxgraph.flowchart.database;whiteSpace=wrap;" vertex="1" parent="G9i1lhWfQHHaJjbso06v-57">
          <mxGeometry x="662.5" y="60" width="115" height="90" as="geometry" />
        </mxCell>
        <mxCell id="G9i1lhWfQHHaJjbso06v-72" value="RESTAURANT DB" style="strokeWidth=2;html=1;shape=mxgraph.flowchart.database;whiteSpace=wrap;" vertex="1" parent="G9i1lhWfQHHaJjbso06v-57">
          <mxGeometry x="822.5" y="60" width="115" height="90" as="geometry" />
        </mxCell>
        <mxCell id="G9i1lhWfQHHaJjbso06v-73" style="edgeStyle=orthogonalEdgeStyle;rounded=0;orthogonalLoop=1;jettySize=auto;html=1;exitX=0.5;exitY=1;exitDx=0;exitDy=0;entryX=0.412;entryY=0.008;entryDx=0;entryDy=0;entryPerimeter=0;" edge="1" parent="1" source="G9i1lhWfQHHaJjbso06v-38" target="G9i1lhWfQHHaJjbso06v-67">
          <mxGeometry relative="1" as="geometry" />
        </mxCell>
        <mxCell id="G9i1lhWfQHHaJjbso06v-75" style="edgeStyle=orthogonalEdgeStyle;rounded=0;orthogonalLoop=1;jettySize=auto;html=1;exitX=0.5;exitY=1;exitDx=0;exitDy=0;" edge="1" parent="1" source="G9i1lhWfQHHaJjbso06v-45" target="G9i1lhWfQHHaJjbso06v-68">
          <mxGeometry relative="1" as="geometry" />
        </mxCell>
        <mxCell id="G9i1lhWfQHHaJjbso06v-76" style="edgeStyle=orthogonalEdgeStyle;rounded=0;orthogonalLoop=1;jettySize=auto;html=1;" edge="1" parent="1" source="G9i1lhWfQHHaJjbso06v-40" target="G9i1lhWfQHHaJjbso06v-69">
          <mxGeometry relative="1" as="geometry" />
        </mxCell>
        <mxCell id="G9i1lhWfQHHaJjbso06v-77" style="edgeStyle=orthogonalEdgeStyle;rounded=0;orthogonalLoop=1;jettySize=auto;html=1;exitX=0.75;exitY=1;exitDx=0;exitDy=0;entryX=0.057;entryY=0.129;entryDx=0;entryDy=0;entryPerimeter=0;" edge="1" parent="1" source="G9i1lhWfQHHaJjbso06v-39" target="G9i1lhWfQHHaJjbso06v-69">
          <mxGeometry relative="1" as="geometry">
            <Array as="points">
              <mxPoint x="320" y="800" />
              <mxPoint x="320" y="900" />
              <mxPoint x="454" y="900" />
            </Array>
          </mxGeometry>
        </mxCell>
        <mxCell id="G9i1lhWfQHHaJjbso06v-78" style="edgeStyle=orthogonalEdgeStyle;rounded=0;orthogonalLoop=1;jettySize=auto;html=1;exitX=0.5;exitY=1;exitDx=0;exitDy=0;" edge="1" parent="1" source="G9i1lhWfQHHaJjbso06v-41" target="G9i1lhWfQHHaJjbso06v-70">
          <mxGeometry relative="1" as="geometry" />
        </mxCell>
        <mxCell id="G9i1lhWfQHHaJjbso06v-79" style="edgeStyle=orthogonalEdgeStyle;rounded=0;orthogonalLoop=1;jettySize=auto;html=1;exitX=0.75;exitY=1;exitDx=0;exitDy=0;" edge="1" parent="1" source="G9i1lhWfQHHaJjbso06v-41" target="G9i1lhWfQHHaJjbso06v-71">
          <mxGeometry relative="1" as="geometry" />
        </mxCell>
        <mxCell id="G9i1lhWfQHHaJjbso06v-80" style="edgeStyle=orthogonalEdgeStyle;rounded=0;orthogonalLoop=1;jettySize=auto;html=1;exitX=0.5;exitY=1;exitDx=0;exitDy=0;entryX=0.5;entryY=0;entryDx=0;entryDy=0;entryPerimeter=0;" edge="1" parent="1" source="G9i1lhWfQHHaJjbso06v-44" target="G9i1lhWfQHHaJjbso06v-72">
          <mxGeometry relative="1" as="geometry" />
        </mxCell>
      </root>
    </mxGraphModel>
  </diagram>
</mxfile>
